<svg width="875" height="605" viewBox="0 0 875 605" fill="none" xmlns="http://www.w3.org/2000/svg">
<path d="M874.371 285.755C874.371 128.814 678.826 0.323792 437.377 0.323792C195.929 0.323792 0.383545 128.814 0.383545 285.755V302.275C0.383545 469.312 171.142 604.226 437.377 604.226C704.531 604.226 874.371 469.312 874.371 302.275V285.755Z" fill="#2D3277"/>
<path d="M858.765 285.755C858.765 433.518 670.563 553.748 439.213 553.748C207.863 553.748 19.6625 433.518 19.6625 285.755C19.6625 137.991 207.863 17.762 439.213 17.762C670.563 17.762 858.765 137.991 858.765 285.755Z" fill="#FFE600"/>
<path d="M299.669 201.32C299.669 201.32 295.078 205.908 297.832 209.579C304.259 217.839 324.456 222.428 345.572 217.839C357.506 215.086 374.031 202.237 388.72 190.306C405.245 177.457 421.77 163.69 438.295 159.101C455.738 153.594 466.755 156.347 474.099 158.183C482.362 160.936 491.542 166.443 507.149 177.456C535.609 198.565 651.284 299.522 671.481 316.96C687.088 309.618 758.696 279.331 856.01 257.304C847.747 205.908 816.534 158.183 768.795 119.637C702.695 147.17 620.987 161.855 541.117 123.308C541.117 123.308 497.969 103.116 454.82 104.033C391.475 105.869 364.851 132.485 335.473 161.854L299.669 201.32Z" fill="white"/>
<path d="M666.891 327.973C665.973 327.055 531.019 209.578 500.723 186.633C483.28 173.784 473.181 170.113 463.082 168.278C457.574 167.36 450.229 168.278 444.721 170.114C430.95 173.785 411.672 186.634 395.147 199.483C377.704 213.25 362.096 226.099 347.408 228.853C328.128 233.441 305.178 227.935 295.079 220.592C290.489 217.839 287.734 214.168 285.898 210.497C282.226 201.319 289.571 193.976 290.489 193.059L327.211 152.676L340.064 139.827C328.129 141.662 317.112 144.416 306.095 147.169C292.324 150.841 279.472 154.511 266.619 154.511C261.111 154.511 231.733 149.923 226.225 148.087C192.257 138.909 162.878 129.732 118.812 109.54C66.4827 149.005 30.679 197.648 20.5804 251.797C27.9248 253.633 40.7771 257.303 45.3674 258.221C164.715 284.837 201.437 312.371 208.782 317.877C216.126 309.617 226.224 305.028 238.159 305.028C251.012 305.028 262.946 311.453 270.291 321.549C276.717 316.042 286.817 311.453 298.751 311.453C304.26 311.453 309.767 312.37 316.194 314.206C329.964 318.795 336.392 327.973 340.064 336.233C344.654 334.397 350.162 332.562 356.588 332.562C363.015 332.562 369.442 334.397 376.786 337.151C398.819 346.328 402.491 368.356 400.655 384.876H405.245C431.869 384.876 452.984 405.985 452.984 432.6C452.984 440.861 451.148 448.203 447.476 454.628C454.82 458.299 472.263 467.476 488.788 465.641C501.641 463.805 506.231 460.134 508.067 457.38C508.985 455.545 510.821 453.709 508.985 451.874L475.017 414.245C475.017 414.245 469.509 408.738 471.345 406.902C473.181 405.066 476.854 407.82 479.608 409.656C497.051 424.34 517.248 445.45 517.248 445.45C517.248 445.45 519.084 448.203 526.428 450.039C532.855 450.956 544.79 450.038 553.052 443.613C554.888 441.778 557.642 439.943 558.56 438.107C566.823 427.094 557.642 416.08 557.642 416.08L518.166 372.027C518.166 372.027 512.658 366.52 514.494 364.684C516.33 362.849 520.002 365.602 522.756 367.438C535.609 377.534 553.052 395.889 569.577 412.41C573.25 415.163 587.938 424.34 607.217 411.491C619.152 403.231 621.906 394.053 620.988 386.711C620.07 377.533 612.726 370.191 612.726 370.191L559.478 316.042C559.478 316.042 553.971 311.453 555.807 308.699C557.643 306.864 561.314 309.618 564.068 311.453C581.511 326.138 627.414 368.355 627.414 368.355C628.332 368.355 643.939 380.287 664.136 367.438C671.481 362.849 676.072 356.425 676.072 348.165C676.99 336.233 666.891 327.973 666.891 327.973Z" fill="white"/>
<path d="M407.081 396.806C398.819 396.806 389.638 401.395 388.72 401.395C387.802 401.395 388.72 397.724 389.638 395.889C390.556 394.053 401.573 361.013 374.949 349.082C354.752 339.904 341.899 350 338.227 354.588C337.309 355.506 336.392 355.506 336.392 354.588C336.392 349.082 333.637 332.562 315.276 327.055C289.57 318.795 273.963 337.151 269.373 343.576C267.537 328.891 255.603 317.877 239.996 317.877C223.471 317.877 210.617 330.726 210.617 347.246C210.617 363.766 223.471 376.616 239.996 376.616C248.258 376.616 254.684 373.862 260.193 368.355V369.273C259.274 376.615 256.52 403.231 284.062 413.327C295.078 417.916 304.26 414.245 312.522 408.738C315.276 406.902 315.276 407.82 315.276 409.656C314.358 416.08 315.276 430.764 336.392 439.024C351.998 445.449 361.178 439.025 366.687 433.518C369.441 430.764 370.359 431.683 370.359 435.354C371.277 454.628 387.802 470.229 407.081 470.229C427.278 470.229 443.803 453.709 443.803 433.518C443.803 413.327 427.278 396.806 407.081 396.806Z" fill="white"/>
<path d="M672.399 314.206C631.087 278.412 535.608 194.894 508.985 175.621C494.296 164.607 484.198 158.183 475.017 156.347C471.345 155.43 465.836 153.594 458.492 153.594C452.065 153.594 444.722 154.512 437.377 157.265C420.852 162.772 404.327 175.621 387.802 188.47L386.884 189.387C372.195 201.319 356.589 213.25 344.654 216.003C339.146 216.921 334.555 217.839 329.046 217.839C316.194 217.839 304.259 214.167 299.669 208.661C298.751 207.743 299.669 205.907 301.505 204.072L338.227 164.608C366.687 136.156 393.311 109.54 455.738 107.704H458.492C497.05 107.704 535.609 125.142 540.199 126.978C576.921 144.415 613.643 153.594 651.283 153.594C690.76 153.594 731.155 143.498 773.385 124.225C768.795 120.554 763.287 115.964 758.696 112.293C721.056 128.813 686.169 136.155 651.283 136.155C616.397 136.155 581.512 127.896 547.544 111.376C545.708 110.458 503.477 90.2661 458.492 90.2661H454.821C402.491 91.1839 373.114 109.54 353.835 126.06C334.555 126.06 318.03 131.567 303.342 135.238C290.489 138.909 278.554 141.663 267.537 141.663H253.766C240.914 141.663 176.65 126.06 126.157 105.869C120.648 109.54 116.058 113.211 110.55 116.882C163.797 138.909 228.979 155.429 249.176 157.265C254.684 157.265 261.111 158.182 267.537 158.182C281.308 158.182 294.161 154.512 307.932 150.841C316.194 149.005 324.456 146.251 332.719 144.416L325.374 151.758L288.652 192.141C285.898 194.895 279.471 203.154 283.144 212.332C284.98 216.003 288.652 219.674 293.242 223.345C302.423 228.852 318.03 233.442 332.719 233.442C338.227 233.442 343.735 232.523 348.325 231.605C363.932 227.934 380.458 215.086 396.983 201.319C410.753 190.306 430.032 176.538 444.721 171.949C449.311 171.031 453.902 170.114 458.492 170.114H462.164C472.263 171.032 481.443 174.703 498.886 187.552C529.182 210.497 664.136 327.973 665.054 328.89C665.054 328.89 673.317 336.233 673.317 349.082C673.317 355.507 668.727 361.932 662.301 366.52C656.792 370.192 650.366 372.027 644.857 372.027C635.677 372.027 629.251 367.438 629.251 367.438C629.251 367.438 582.43 325.219 565.905 310.535C563.151 307.781 560.396 305.946 557.642 305.946C555.806 305.946 554.888 306.864 553.97 307.782C551.216 311.453 553.97 316.042 557.642 318.795L611.808 372.945C611.808 372.945 618.233 379.369 619.151 387.629C619.151 396.807 615.48 404.149 606.3 409.656C599.873 414.245 593.446 416.08 587.02 416.08C578.757 416.08 573.249 412.409 571.413 411.491L563.15 404.149C549.379 390.383 534.691 375.698 523.675 367.438C520.92 365.602 518.166 362.849 515.412 362.849C514.494 362.849 512.658 362.849 511.739 364.684C510.821 365.602 509.903 368.356 512.657 372.945C513.575 374.78 515.412 375.698 515.412 375.698L554.888 419.751C554.888 419.751 563.151 429.847 555.807 438.107L553.97 439.943L550.297 443.614C543.871 449.12 534.691 450.039 531.018 450.039H525.51C521.838 449.121 519.084 448.203 517.248 446.367C515.411 443.614 495.215 424.34 478.69 410.573C476.854 408.738 474.099 406.902 471.345 406.902C470.427 406.902 468.59 407.821 467.672 408.738C464.918 412.41 469.509 417.916 471.345 419.751L505.314 456.463C505.314 456.463 505.313 457.381 504.395 459.217C503.477 461.052 498.887 464.723 486.952 466.558H482.362C469.509 466.558 456.656 460.134 449.311 456.463C452.065 450.038 453.902 442.697 453.902 435.354C453.902 407.821 431.869 385.794 404.328 385.794H402.491C403.409 372.945 401.573 349.083 376.786 338.987C369.441 336.234 363.015 334.398 355.67 334.398C350.162 334.398 345.572 335.315 340.064 337.151C334.555 327.055 326.292 319.713 315.276 316.042C308.849 314.207 303.341 313.288 296.914 313.288C286.816 313.288 277.635 316.042 269.373 322.466C265.385 317.557 260.344 313.606 254.624 310.905C248.903 308.205 242.649 306.824 236.323 306.864C225.306 306.864 214.29 311.453 206.946 318.795C196.847 310.535 155.534 284.837 44.4495 259.139C38.9411 258.221 27.0069 254.551 19.6624 251.797C18.7444 257.304 17.8259 263.728 16.9078 270.153C16.9078 270.153 37.1057 274.742 41.696 275.659C154.617 300.44 192.257 327.055 198.683 331.644C196.847 337.151 195.928 342.658 195.928 348.165C195.928 372.027 215.207 390.383 238.159 390.383C240.913 390.383 243.667 390.383 246.421 389.465C250.094 406.903 261.11 419.752 278.553 426.177C284.062 428.012 288.652 428.929 293.242 428.929C295.996 428.929 299.669 428.929 303.342 428.012C306.096 436.272 313.439 446.367 329.964 452.791C335.473 455.545 340.981 456.463 346.49 456.463C351.08 456.463 355.67 455.546 359.343 453.71C366.687 472.066 385.048 484.914 405.245 484.914C419.016 484.914 431.869 479.408 441.05 469.312C449.312 473.901 465.837 482.161 483.28 482.161H489.706C507.149 480.326 514.493 472.983 518.165 468.394C519.083 467.477 519.084 466.558 520.002 465.641C523.674 466.558 528.265 467.477 533.773 467.477C542.954 467.477 552.134 464.723 561.315 457.38C570.495 450.956 576.921 441.778 576.921 433.518C579.675 434.436 583.348 434.436 586.102 434.436C595.282 434.436 605.381 431.682 614.561 425.258C632.004 414.244 634.759 398.643 634.759 389.465C637.513 390.383 641.185 390.383 643.94 390.383C653.12 390.383 662.301 387.629 670.563 382.122C681.58 374.78 688.006 364.685 688.924 352.754C689.843 344.494 687.087 336.233 683.415 328.89C712.793 316.041 778.893 292.179 857.846 273.823C857.846 267.399 856.928 261.892 855.092 255.468C760.532 275.659 689.842 305.946 672.399 314.206ZM407.081 467.477C388.72 467.477 374.032 452.791 373.113 434.436C373.113 432.6 373.113 428.929 369.441 428.929C367.605 428.929 366.687 429.848 364.851 430.765C361.179 434.437 355.67 438.107 348.325 438.107C344.653 438.107 340.981 437.19 337.309 435.354C318.03 427.094 317.112 414.245 318.03 408.738C318.03 406.903 318.03 405.985 317.112 405.067L316.193 404.149H315.276C314.358 404.149 313.439 404.149 311.603 405.985C306.095 409.656 300.587 411.491 295.079 411.491C292.325 411.491 288.652 410.574 285.898 409.656C260.193 399.56 262.029 375.698 263.865 368.356C263.865 366.52 263.865 365.602 262.947 364.684L261.11 362.849L259.274 364.684C253.766 369.273 247.34 372.027 240.913 372.027C226.225 372.027 214.29 360.096 214.29 345.411C214.29 330.726 226.225 318.795 240.913 318.795C253.766 318.795 265.701 328.891 267.537 341.74L268.455 349.082L272.127 342.657C272.127 341.739 283.144 325.22 303.342 326.138C307.014 326.138 310.685 327.055 315.276 327.973C330.883 332.562 333.637 347.247 333.637 352.754C333.637 356.425 336.391 356.424 336.391 356.424C337.309 356.424 339.145 355.507 339.145 354.589C341.899 351.835 348.326 346.329 358.425 346.329C363.015 346.329 367.605 347.247 373.113 350C397.901 361.013 386.884 392.218 386.884 393.135C385.048 398.642 384.13 400.478 386.884 402.313H388.72C389.638 402.313 391.474 402.313 393.31 401.396C396.982 400.478 401.573 398.643 406.163 398.643C424.524 398.643 440.131 414.245 440.131 432.601C441.049 452.792 425.442 467.477 407.081 467.477Z" fill="#2D3277"/>
</svg>
